# xmcd
#
# Track frame offsets:
#	150
#	15300
#	30263
#	47363
#
# Disc length: 827 seconds
#
# Revision: 0
# Processed by: cddbd v1.5.1PL2 Copyright (c) Steve Scherf et al.
# Submitted via: audiograbber 1.83.01
#
DISCID=19033904
DTITLE=Stony Waters - Stony Water
DYEAR=2005
DGENRE=EP
TTITLE0=Goin' down To Mexico
TTITLE1=Bitch
TTITLE2=Ain't That A Bitch
TTITLE3=Oh, Carol
EXTD=
EXTT0=
EXTT1=
EXTT2=
EXTT3=
PLAYORDER=
